<mxfile host="Electron" modified="2023-05-01T14:49:44.380Z" agent="Mozilla/5.0 (Windows NT 10.0; Win64; x64) AppleWebKit/537.36 (KHTML, like Gecko) draw.io/21.2.1 Chrome/112.0.5615.87 Electron/24.1.2 Safari/537.36" etag="LiZuJf29sVnET2fIv2x1" version="21.2.1" type="device">
  <diagram name="Page-1" id="Rh9Z-nv9Vzy9C3EMu_67">
    <mxGraphModel dx="1373" dy="390" grid="1" gridSize="10" guides="1" tooltips="1" connect="1" arrows="1" fold="1" page="1" pageScale="1" pageWidth="850" pageHeight="1100" math="0" shadow="0">
      <root>
        <mxCell id="0" />
        <mxCell id="1" parent="0" />
        <mxCell id="tPHSFkMWMmzKJ3XyT-So-1" value="&lt;i style=&quot;border-color: var(--border-color); color: rgb(0, 153, 0);&quot;&gt;&lt;font style=&quot;border-color: var(--border-color); font-size: 15px;&quot;&gt;&amp;lt;&amp;lt;HttpServlet&amp;gt;&amp;gt;&lt;/font&gt;&lt;/i&gt;&lt;font color=&quot;#009900&quot; style=&quot;&quot;&gt;&lt;b style=&quot;font-size: 18px;&quot;&gt;&lt;br&gt;placeBid&lt;br&gt;&lt;/b&gt;&lt;/font&gt;" style="rounded=0;whiteSpace=wrap;html=1;strokeWidth=3;fillColor=default;strokeColor=#009900;" parent="1" vertex="1">
          <mxGeometry x="-160" y="220" width="150" height="60" as="geometry" />
        </mxCell>
        <mxCell id="tPHSFkMWMmzKJ3XyT-So-2" value="&lt;font color=&quot;#009900&quot; style=&quot;&quot;&gt;&lt;i style=&quot;&quot;&gt;&lt;font style=&quot;font-size: 15px;&quot;&gt;&amp;lt;&amp;lt;Class&amp;gt;&amp;gt;&lt;/font&gt;&lt;/i&gt;&lt;br&gt;&lt;span style=&quot;font-size: 18px;&quot;&gt;&lt;b&gt;Bid&lt;/b&gt;&lt;/span&gt;&lt;br&gt;&lt;/font&gt;" style="rounded=0;whiteSpace=wrap;html=1;strokeWidth=3;fillColor=default;strokeColor=#009900;" parent="1" vertex="1">
          <mxGeometry x="630" y="220" width="150" height="60" as="geometry" />
        </mxCell>
        <mxCell id="tPHSFkMWMmzKJ3XyT-So-3" value="" style="endArrow=none;html=1;rounded=0;entryX=0.5;entryY=1;entryDx=0;entryDy=0;strokeWidth=2;fillColor=#d5e8d4;strokeColor=#009900;dashed=1;" parent="1" source="tPHSFkMWMmzKJ3XyT-So-6" target="tPHSFkMWMmzKJ3XyT-So-1" edge="1">
          <mxGeometry width="50" height="50" relative="1" as="geometry">
            <mxPoint x="-85" y="670" as="sourcePoint" />
            <mxPoint x="160" y="440" as="targetPoint" />
          </mxGeometry>
        </mxCell>
        <mxCell id="tPHSFkMWMmzKJ3XyT-So-4" value="" style="endArrow=none;html=1;rounded=0;entryX=0.5;entryY=1;entryDx=0;entryDy=0;strokeWidth=2;fillColor=#d5e8d4;strokeColor=#009900;dashed=1;" parent="1" source="tPHSFkMWMmzKJ3XyT-So-9" target="tPHSFkMWMmzKJ3XyT-So-2" edge="1">
          <mxGeometry width="50" height="50" relative="1" as="geometry">
            <mxPoint x="705" y="670" as="sourcePoint" />
            <mxPoint x="425" y="350" as="targetPoint" />
          </mxGeometry>
        </mxCell>
        <mxCell id="tPHSFkMWMmzKJ3XyT-So-5" value="" style="endArrow=none;html=1;rounded=0;entryX=0.412;entryY=1.004;entryDx=0;entryDy=0;strokeWidth=2;fillColor=#d5e8d4;strokeColor=#009900;dashed=1;entryPerimeter=0;" parent="1" edge="1">
          <mxGeometry width="50" height="50" relative="1" as="geometry">
            <mxPoint x="-87" y="790" as="sourcePoint" />
            <mxPoint x="-87.19999999999982" y="741.96" as="targetPoint" />
          </mxGeometry>
        </mxCell>
        <mxCell id="tPHSFkMWMmzKJ3XyT-So-6" value="" style="rounded=0;whiteSpace=wrap;html=1;fillColor=#FFFFFF;strokeWidth=2;strokeColor=#009900;" parent="1" vertex="1">
          <mxGeometry x="-97.5" y="340" width="25" height="410" as="geometry" />
        </mxCell>
        <mxCell id="tPHSFkMWMmzKJ3XyT-So-7" value="" style="endArrow=none;html=1;rounded=0;strokeWidth=2;strokeColor=#009900;startArrow=classic;startFill=1;entryX=1.008;entryY=0.241;entryDx=0;entryDy=0;entryPerimeter=0;" parent="1" edge="1">
          <mxGeometry width="50" height="50" relative="1" as="geometry">
            <mxPoint x="690" y="624" as="sourcePoint" />
            <mxPoint x="-72.50000000000018" y="623.8399999999999" as="targetPoint" />
          </mxGeometry>
        </mxCell>
        <mxCell id="tPHSFkMWMmzKJ3XyT-So-8" value="" style="endArrow=none;html=1;rounded=0;entryX=0.5;entryY=1;entryDx=0;entryDy=0;strokeWidth=2;fillColor=#d5e8d4;strokeColor=#009900;dashed=1;" parent="1" target="tPHSFkMWMmzKJ3XyT-So-9" edge="1">
          <mxGeometry width="50" height="50" relative="1" as="geometry">
            <mxPoint x="705" y="800" as="sourcePoint" />
            <mxPoint x="703.75" y="626" as="targetPoint" />
          </mxGeometry>
        </mxCell>
        <mxCell id="tPHSFkMWMmzKJ3XyT-So-9" value="" style="rounded=0;whiteSpace=wrap;html=1;fillColor=#FFFFFF;strokeWidth=2;strokeColor=#009900;" parent="1" vertex="1">
          <mxGeometry x="692.3" y="606" width="25" height="70" as="geometry" />
        </mxCell>
        <mxCell id="tPHSFkMWMmzKJ3XyT-So-10" value="&lt;font style=&quot;&quot;&gt;&lt;i style=&quot;&quot;&gt;&lt;font style=&quot;font-size: 12px;&quot;&gt;&amp;lt;&amp;lt;static&amp;gt;&amp;gt;&lt;/font&gt;&lt;/i&gt;&lt;br&gt;&lt;span style=&quot;font-size: 14px;&quot;&gt;getAuctionFromId(auction_id)&lt;/span&gt;&lt;/font&gt;" style="text;html=1;align=center;verticalAlign=middle;resizable=0;points=[];autosize=1;strokeColor=none;fillColor=none;" parent="1" vertex="1">
          <mxGeometry x="31.5" y="476" width="210" height="40" as="geometry" />
        </mxCell>
        <mxCell id="tPHSFkMWMmzKJ3XyT-So-11" value="&lt;font color=&quot;#009900&quot; style=&quot;&quot;&gt;&lt;i style=&quot;&quot;&gt;&lt;font style=&quot;font-size: 15px;&quot;&gt;&amp;lt;&amp;lt;HttpServlet&amp;gt;&amp;gt;&lt;/font&gt;&lt;/i&gt;&lt;br&gt;&lt;span style=&quot;font-size: 18px;&quot;&gt;&lt;b&gt;auctionOffer&lt;/b&gt;&lt;/span&gt;&lt;br&gt;&lt;/font&gt;" style="rounded=0;whiteSpace=wrap;html=1;strokeWidth=3;fillColor=default;strokeColor=#009900;" parent="1" vertex="1">
          <mxGeometry x="820" y="220" width="150" height="60" as="geometry" />
        </mxCell>
        <mxCell id="tPHSFkMWMmzKJ3XyT-So-12" value="" style="endArrow=none;html=1;rounded=0;entryX=0.5;entryY=1;entryDx=0;entryDy=0;strokeWidth=2;fillColor=#d5e8d4;strokeColor=#009900;dashed=1;" parent="1" source="tPHSFkMWMmzKJ3XyT-So-14" target="tPHSFkMWMmzKJ3XyT-So-11" edge="1">
          <mxGeometry width="50" height="50" relative="1" as="geometry">
            <mxPoint x="895" y="670" as="sourcePoint" />
            <mxPoint x="615" y="350" as="targetPoint" />
          </mxGeometry>
        </mxCell>
        <mxCell id="tPHSFkMWMmzKJ3XyT-So-13" value="" style="endArrow=none;html=1;rounded=0;entryX=0.5;entryY=1;entryDx=0;entryDy=0;strokeWidth=2;fillColor=#d5e8d4;strokeColor=#009900;dashed=1;" parent="1" target="tPHSFkMWMmzKJ3XyT-So-14" edge="1">
          <mxGeometry width="50" height="50" relative="1" as="geometry">
            <mxPoint x="893" y="800" as="sourcePoint" />
            <mxPoint x="892.5" y="570" as="targetPoint" />
          </mxGeometry>
        </mxCell>
        <mxCell id="tPHSFkMWMmzKJ3XyT-So-14" value="" style="rounded=0;whiteSpace=wrap;html=1;fillColor=#FFFFFF;strokeWidth=2;strokeColor=#009900;" parent="1" vertex="1">
          <mxGeometry x="880" y="700" width="25" height="60" as="geometry" />
        </mxCell>
        <mxCell id="tPHSFkMWMmzKJ3XyT-So-15" value="" style="endArrow=none;html=1;rounded=0;strokeWidth=2;strokeColor=#009900;startArrow=classic;startFill=1;entryX=1.049;entryY=0.611;entryDx=0;entryDy=0;entryPerimeter=0;" parent="1" edge="1">
          <mxGeometry width="50" height="50" relative="1" as="geometry">
            <mxPoint x="878.75" y="717" as="sourcePoint" />
            <mxPoint x="-73.77500000000009" y="716.6400000000001" as="targetPoint" />
          </mxGeometry>
        </mxCell>
        <mxCell id="tPHSFkMWMmzKJ3XyT-So-16" value="&lt;font style=&quot;font-size: 14px;&quot;&gt;resp.sendRedirect&lt;/font&gt;" style="text;html=1;align=center;verticalAlign=middle;resizable=0;points=[];autosize=1;strokeColor=none;fillColor=none;" parent="1" vertex="1">
          <mxGeometry x="62.5" y="693" width="140" height="30" as="geometry" />
        </mxCell>
        <mxCell id="tPHSFkMWMmzKJ3XyT-So-17" value="" style="endArrow=none;html=1;rounded=0;exitX=0;exitY=0.25;exitDx=0;exitDy=0;strokeWidth=2;strokeColor=#009900;startArrow=classic;startFill=1;" parent="1" edge="1">
          <mxGeometry width="50" height="50" relative="1" as="geometry">
            <mxPoint x="-97.5" y="360" as="sourcePoint" />
            <mxPoint x="-220" y="360" as="targetPoint" />
          </mxGeometry>
        </mxCell>
        <mxCell id="tPHSFkMWMmzKJ3XyT-So-18" value="&lt;font style=&quot;font-size: 14px;&quot;&gt;doPost&lt;/font&gt;" style="text;html=1;align=center;verticalAlign=middle;resizable=0;points=[];autosize=1;strokeColor=none;fillColor=none;" parent="1" vertex="1">
          <mxGeometry x="-185" y="334" width="70" height="30" as="geometry" />
        </mxCell>
        <mxCell id="tPHSFkMWMmzKJ3XyT-So-19" value="&lt;font style=&quot;font-size: 14px;&quot;&gt;&lt;i&gt;POST&lt;/i&gt;&lt;br&gt;&lt;b&gt;/placeBid&lt;/b&gt;&lt;/font&gt;&lt;br&gt;auction&lt;br&gt;bid" style="text;html=1;align=right;verticalAlign=middle;resizable=0;points=[];autosize=1;strokeColor=none;fillColor=none;" parent="1" vertex="1">
          <mxGeometry x="-210" y="390" width="90" height="80" as="geometry" />
        </mxCell>
        <mxCell id="tPHSFkMWMmzKJ3XyT-So-20" value="&lt;font color=&quot;#009900&quot; style=&quot;&quot;&gt;&lt;span style=&quot;font-size: 15px;&quot;&gt;&lt;i&gt;&amp;lt;&amp;lt;HttpSession&amp;gt;&amp;gt;&lt;/i&gt;&lt;/span&gt;&lt;br&gt;&lt;span style=&quot;font-size: 18px;&quot;&gt;&lt;b&gt;Session&lt;/b&gt;&lt;/span&gt;&lt;br&gt;&lt;/font&gt;" style="rounded=0;whiteSpace=wrap;html=1;strokeWidth=3;fillColor=default;strokeColor=#009900;" parent="1" vertex="1">
          <mxGeometry x="250" y="220" width="150" height="60" as="geometry" />
        </mxCell>
        <mxCell id="tPHSFkMWMmzKJ3XyT-So-21" value="" style="endArrow=none;html=1;rounded=0;entryX=0.5;entryY=1;entryDx=0;entryDy=0;strokeWidth=2;fillColor=#d5e8d4;strokeColor=#009900;dashed=1;" parent="1" source="tPHSFkMWMmzKJ3XyT-So-23" target="tPHSFkMWMmzKJ3XyT-So-20" edge="1">
          <mxGeometry width="50" height="50" relative="1" as="geometry">
            <mxPoint x="325" y="670" as="sourcePoint" />
            <mxPoint x="45" y="350" as="targetPoint" />
          </mxGeometry>
        </mxCell>
        <mxCell id="tPHSFkMWMmzKJ3XyT-So-22" value="" style="endArrow=none;html=1;rounded=0;entryX=0.5;entryY=1;entryDx=0;entryDy=0;strokeWidth=2;fillColor=#d5e8d4;strokeColor=#009900;dashed=1;" parent="1" target="tPHSFkMWMmzKJ3XyT-So-23" edge="1">
          <mxGeometry width="50" height="50" relative="1" as="geometry">
            <mxPoint x="325" y="800" as="sourcePoint" />
            <mxPoint x="325" y="490" as="targetPoint" />
          </mxGeometry>
        </mxCell>
        <mxCell id="tPHSFkMWMmzKJ3XyT-So-23" value="" style="rounded=0;whiteSpace=wrap;html=1;fillColor=#FFFFFF;strokeWidth=2;strokeColor=#009900;" parent="1" vertex="1">
          <mxGeometry x="312.5" y="340" width="25" height="120" as="geometry" />
        </mxCell>
        <mxCell id="tPHSFkMWMmzKJ3XyT-So-24" value="" style="endArrow=none;html=1;rounded=0;strokeWidth=2;strokeColor=#009900;startArrow=classic;startFill=1;" parent="1" edge="1">
          <mxGeometry width="50" height="50" relative="1" as="geometry">
            <mxPoint x="310" y="370" as="sourcePoint" />
            <mxPoint x="-70" y="370" as="targetPoint" />
          </mxGeometry>
        </mxCell>
        <mxCell id="tPHSFkMWMmzKJ3XyT-So-25" value="&lt;font style=&quot;font-size: 14px;&quot;&gt;getAttribute(&quot;user&quot;)&lt;/font&gt;" style="text;html=1;align=center;verticalAlign=middle;resizable=0;points=[];autosize=1;strokeColor=none;fillColor=none;" parent="1" vertex="1">
          <mxGeometry x="63" y="345" width="140" height="30" as="geometry" />
        </mxCell>
        <mxCell id="tPHSFkMWMmzKJ3XyT-So-26" value="" style="endArrow=none;html=1;rounded=0;strokeWidth=2;strokeColor=#009900;startArrow=classic;startFill=1;" parent="1" edge="1">
          <mxGeometry width="50" height="50" relative="1" as="geometry">
            <mxPoint x="-70" y="440" as="sourcePoint" />
            <mxPoint x="310" y="440" as="targetPoint" />
          </mxGeometry>
        </mxCell>
        <mxCell id="tPHSFkMWMmzKJ3XyT-So-27" value="&lt;font style=&quot;font-size: 14px;&quot;&gt;&lt;i&gt;User&lt;/i&gt; user&lt;/font&gt;" style="text;html=1;align=center;verticalAlign=middle;resizable=0;points=[];autosize=1;strokeColor=none;fillColor=none;" parent="1" vertex="1">
          <mxGeometry x="93.5" y="417" width="80" height="30" as="geometry" />
        </mxCell>
        <mxCell id="tPHSFkMWMmzKJ3XyT-So-28" value="" style="group" parent="1" vertex="1" connectable="0">
          <mxGeometry x="-97.5" y="780" width="20" height="20" as="geometry" />
        </mxCell>
        <mxCell id="tPHSFkMWMmzKJ3XyT-So-29" value="" style="endArrow=none;html=1;rounded=0;strokeWidth=2;fillColor=#d5e8d4;strokeColor=#009900;" parent="tPHSFkMWMmzKJ3XyT-So-28" edge="1">
          <mxGeometry width="50" height="50" relative="1" as="geometry">
            <mxPoint y="20" as="sourcePoint" />
            <mxPoint x="20" as="targetPoint" />
          </mxGeometry>
        </mxCell>
        <mxCell id="tPHSFkMWMmzKJ3XyT-So-30" value="" style="endArrow=none;html=1;rounded=0;strokeWidth=2;fillColor=#d5e8d4;strokeColor=#009900;" parent="tPHSFkMWMmzKJ3XyT-So-28" edge="1">
          <mxGeometry width="50" height="50" relative="1" as="geometry">
            <mxPoint x="20" y="20" as="sourcePoint" />
            <mxPoint as="targetPoint" />
          </mxGeometry>
        </mxCell>
        <mxCell id="tPHSFkMWMmzKJ3XyT-So-32" value="&lt;font color=&quot;#009900&quot; style=&quot;&quot;&gt;&lt;i style=&quot;&quot;&gt;&lt;font style=&quot;font-size: 15px;&quot;&gt;&amp;lt;&amp;lt;Class&amp;gt;&amp;gt;&lt;/font&gt;&lt;/i&gt;&lt;br&gt;&lt;span style=&quot;font-size: 18px;&quot;&gt;&lt;b&gt;Auction&lt;/b&gt;&lt;/span&gt;&lt;br&gt;&lt;/font&gt;" style="rounded=0;whiteSpace=wrap;html=1;strokeWidth=3;fillColor=default;strokeColor=#009900;" parent="1" vertex="1">
          <mxGeometry x="441" y="220" width="150" height="60" as="geometry" />
        </mxCell>
        <mxCell id="tPHSFkMWMmzKJ3XyT-So-33" value="" style="endArrow=none;html=1;rounded=0;entryX=0.5;entryY=1;entryDx=0;entryDy=0;strokeWidth=2;fillColor=#d5e8d4;strokeColor=#009900;dashed=1;" parent="1" source="tPHSFkMWMmzKJ3XyT-So-35" target="tPHSFkMWMmzKJ3XyT-So-32" edge="1">
          <mxGeometry width="50" height="50" relative="1" as="geometry">
            <mxPoint x="516" y="670" as="sourcePoint" />
            <mxPoint x="236" y="350" as="targetPoint" />
          </mxGeometry>
        </mxCell>
        <mxCell id="tPHSFkMWMmzKJ3XyT-So-34" value="" style="endArrow=none;html=1;rounded=0;entryX=0.5;entryY=1;entryDx=0;entryDy=0;strokeWidth=2;fillColor=#d5e8d4;strokeColor=#009900;dashed=1;" parent="1" target="tPHSFkMWMmzKJ3XyT-So-35" edge="1">
          <mxGeometry width="50" height="50" relative="1" as="geometry">
            <mxPoint x="516" y="800" as="sourcePoint" />
            <mxPoint x="514.75" y="626" as="targetPoint" />
          </mxGeometry>
        </mxCell>
        <mxCell id="tPHSFkMWMmzKJ3XyT-So-35" value="" style="rounded=0;whiteSpace=wrap;html=1;fillColor=#FFFFFF;strokeWidth=2;strokeColor=#009900;" parent="1" vertex="1">
          <mxGeometry x="503.5" y="500" width="25" height="70" as="geometry" />
        </mxCell>
        <mxCell id="tPHSFkMWMmzKJ3XyT-So-36" value="" style="endArrow=none;html=1;rounded=0;strokeWidth=2;strokeColor=#009900;startArrow=classic;startFill=1;entryX=1.008;entryY=0.241;entryDx=0;entryDy=0;entryPerimeter=0;" parent="1" edge="1">
          <mxGeometry width="50" height="50" relative="1" as="geometry">
            <mxPoint x="500" y="514" as="sourcePoint" />
            <mxPoint x="-73.30000000000018" y="513.8399999999999" as="targetPoint" />
          </mxGeometry>
        </mxCell>
        <mxCell id="tPHSFkMWMmzKJ3XyT-So-38" value="" style="endArrow=none;html=1;rounded=0;strokeWidth=2;strokeColor=#009900;startArrow=classic;startFill=1;" parent="1" edge="1">
          <mxGeometry width="50" height="50" relative="1" as="geometry">
            <mxPoint x="-70.80000000000018" y="553.8399999999999" as="sourcePoint" />
            <mxPoint x="500" y="554" as="targetPoint" />
          </mxGeometry>
        </mxCell>
        <mxCell id="tPHSFkMWMmzKJ3XyT-So-41" value="&lt;font style=&quot;font-size: 14px;&quot;&gt;&amp;nbsp;&lt;i&gt;Auction&lt;/i&gt;&amp;nbsp;auction&lt;/font&gt;" style="text;html=1;align=center;verticalAlign=middle;resizable=0;points=[];autosize=1;strokeColor=none;fillColor=none;" parent="1" vertex="1">
          <mxGeometry x="76.5" y="530" width="120" height="30" as="geometry" />
        </mxCell>
        <mxCell id="tPHSFkMWMmzKJ3XyT-So-45" value="&lt;font style=&quot;font-size: 14px;&quot;&gt;&lt;i&gt;&lt;font style=&quot;font-size: 14px;&quot;&gt;&amp;lt;&amp;lt;static&amp;gt;&amp;gt;&lt;/font&gt;&lt;/i&gt;&lt;br&gt;placeBid(user.getId(), auction_id, newBidAmount)&lt;/font&gt;" style="text;html=1;align=center;verticalAlign=middle;resizable=0;points=[];autosize=1;strokeColor=none;fillColor=none;" parent="1" vertex="1">
          <mxGeometry x="-28.5" y="579" width="330" height="50" as="geometry" />
        </mxCell>
      </root>
    </mxGraphModel>
  </diagram>
</mxfile>
